<?xml version="1.0" encoding="UTF-8"?>
<!-- Generated by Pixelmator Pro 2.4.6 -->
<svg width="30" height="30" viewBox="0 0 30 30" xmlns="http://www.w3.org/2000/svg" xmlns:xlink="http://www.w3.org/1999/xlink">
    <path id="Path" fill="#000000" stroke="none" d="M 4.37 15.62 C 4.37 15.38 4.45 15.18 4.62 15.01 C 4.8 14.84 5 14.76 5.22 14.76 L 7.26 14.76 C 7.49 14.76 7.68 14.84 7.84 15.01 C 7.99 15.18 8.07 15.38 8.07 15.62 C 8.07 15.86 7.99 16.059999 7.84 16.219999 C 7.69 16.389999 7.49 16.469999 7.26 16.469999 L 5.23 16.469999 C 5 16.469999 4.8 16.389999 4.63 16.219999 C 4.46 16.049999 4.37 15.85 4.37 15.62 Z M 7.23 8.709999 C 7.23 8.48 7.31 8.279999 7.46 8.1 C 7.66 7.93 7.87 7.85 8.1 7.85 C 8.31 7.85 8.51 7.93 8.69 8.1 L 10.12 9.560001 C 10.28 9.709999 10.36 9.91 10.36 10.15 C 10.36 10.389999 10.28 10.59 10.12 10.75 C 9.96 10.91 9.76 10.99 9.52 10.99 C 9.28 10.99 9.08 10.91 8.93 10.75 L 7.47 9.32 C 7.31 9.15 7.23 8.950001 7.23 8.709999 Z M 7.39 18.02 C 7.39 17.799999 7.47 17.610001 7.62 17.469999 C 7.78 17.33 7.99 17.25 8.26 17.25 L 13.97 17.25 C 14.24 17.25 14.45 17.32 14.61 17.469999 C 14.77 17.610001 14.85 17.799999 14.85 18.02 C 14.85 18.290001 14.77 18.5 14.62 18.66 C 14.46 18.82 14.25 18.9 13.97 18.9 L 8.26 18.9 C 7.99 18.9 7.78 18.82 7.62 18.67 C 7.46 18.52 7.39 18.290001 7.39 18.02 Z M 8.38 20.969999 C 8.38 20.75 8.47 20.549999 8.66 20.370001 C 8.84 20.190001 9.05 20.1 9.26 20.1 C 9.52 20.1 9.73 20.190001 9.89 20.360001 C 10.05 20.540001 10.13 20.74 10.13 20.969999 C 10.13 21.25 10.05 21.459999 9.9 21.620001 C 9.75 21.780001 9.53 21.85 9.26 21.85 C 9.03 21.85 8.82 21.77 8.65 21.610001 C 8.47 21.450001 8.38 21.23 8.38 20.969999 Z M 9.79 15.91 L 9.79 15.84 C 9.82 14.58 10.26 13.49 11.1 12.560001 C 11.94 11.630001 12.97 11.07 14.2 10.869999 L 14.25 10.869999 C 14.44 10.83 14.7 10.810001 15.01 10.810001 C 15.32 10.810001 15.58 10.83 15.77 10.869999 L 15.81 10.869999 C 17.030001 11.060001 18.07 11.630001 18.91 12.560001 C 19.75 13.49 20.190001 14.58 20.219999 15.84 L 20.219999 15.91 C 20.219999 16.07 20.139999 16.15 19.99 16.15 L 18.860001 16.15 C 18.74 16.15 18.66 16.120001 18.610001 16.059999 C 18.559999 16 18.540001 15.94 18.540001 15.88 C 18.5 14.95 18.139999 14.16 17.459999 13.51 C 16.780001 12.860001 15.97 12.540001 15.02 12.540001 C 14.07 12.540001 13.26 12.860001 12.58 13.51 C 11.9 14.16 11.54 14.95 11.5 15.88 C 11.5 15.94 11.47 16 11.42 16.059999 C 11.37 16.120001 11.28 16.15 11.16 16.15 L 10.03 16.15 C 9.87 16.15 9.79 16.07 9.79 15.91 Z M 10.8 20.969999 C 10.8 20.74 10.88 20.540001 11.04 20.360001 C 11.2 20.190001 11.41 20.1 11.67 20.1 L 15.5 20.1 C 15.72 20.1 15.92 20.190001 16.1 20.370001 C 16.280001 20.549999 16.379999 20.75 16.379999 20.969999 C 16.379999 21.23 16.290001 21.450001 16.110001 21.610001 C 15.93 21.77 15.73 21.85 15.5 21.85 L 11.67 21.85 C 11.4 21.85 11.19 21.77 11.03 21.620001 C 10.87 21.459999 10.8 21.25 10.8 20.969999 Z M 14.14 7.889999 L 14.14 5.860001 C 14.14 5.619999 14.22 5.42 14.39 5.25 C 14.56 5.08 14.76 5 15 5 C 15.24 5 15.43 5.08 15.6 5.25 C 15.77 5.42 15.85 5.619999 15.85 5.860001 L 15.85 7.889999 C 15.85 8.119999 15.77 8.32 15.6 8.470001 C 15.43 8.619999 15.23 8.709999 15 8.709999 C 14.77 8.709999 14.56 8.630001 14.4 8.48 C 14.24 8.33 14.14 8.119999 14.14 7.889999 Z M 15.5 18.02 C 15.5 17.809999 15.59 17.629999 15.77 17.48 C 15.95 17.33 16.15 17.25 16.379999 17.25 C 16.610001 17.25 16.809999 17.33 16.99 17.48 C 17.17 17.629999 17.26 17.809999 17.26 18.02 C 17.26 18.280001 17.17 18.5 16.99 18.66 C 16.809999 18.82 16.610001 18.9 16.379999 18.9 C 16.15 18.9 15.94 18.82 15.77 18.66 C 15.59 18.49 15.5 18.280001 15.5 18.02 Z M 17.040001 20.969999 C 17.040001 20.74 17.120001 20.540001 17.280001 20.360001 C 17.440001 20.190001 17.66 20.1 17.92 20.1 L 19.780001 20.1 C 20.040001 20.1 20.25 20.190001 20.41 20.360001 C 20.57 20.540001 20.65 20.74 20.65 20.969999 C 20.65 21.25 20.57 21.459999 20.42 21.620001 C 20.27 21.780001 20.049999 21.85 19.780001 21.85 L 17.92 21.85 C 17.65 21.85 17.440001 21.77 17.280001 21.620001 C 17.120001 21.459999 17.040001 21.25 17.040001 20.969999 Z M 17.92 18.02 C 17.92 17.809999 18.01 17.629999 18.190001 17.48 C 18.370001 17.33 18.57 17.25 18.790001 17.25 L 21.860001 17.25 C 22.08 17.25 22.26 17.32 22.4 17.469999 C 22.540001 17.620001 22.620001 17.799999 22.620001 18.02 C 22.620001 18.290001 22.549999 18.5 22.41 18.66 C 22.27 18.82 22.09 18.9 21.860001 18.9 L 18.790001 18.9 C 18.559999 18.9 18.360001 18.82 18.18 18.66 C 18.01 18.49 17.92 18.280001 17.92 18.02 Z M 19.66 10.15 C 19.66 9.9 19.74 9.700001 19.889999 9.560001 L 21.309999 8.1 C 21.49 7.93 21.690001 7.85 21.9 7.85 C 22.129999 7.85 22.33 7.93 22.5 8.1 C 22.67 8.27 22.75 8.470001 22.75 8.709999 C 22.75 8.950001 22.67 9.16 22.51 9.32 L 21.049999 10.74 C 20.870001 10.9 20.67 10.98 20.450001 10.98 C 20.219999 10.98 20.040001 10.9 19.889999 10.74 C 19.74 10.59 19.66 10.389999 19.66 10.15 Z M 21.92 15.62 C 21.92 15.39 22 15.19 22.16 15.01 C 22.33 14.84 22.52 14.76 22.73 14.76 L 24.75 14.76 C 24.98 14.76 25.18 14.85 25.35 15.02 C 25.52 15.19 25.610001 15.39 25.610001 15.62 C 25.610001 15.85 25.52 16.049999 25.35 16.219999 C 25.18 16.389999 24.98 16.469999 24.75 16.469999 L 22.73 16.469999 C 22.5 16.469999 22.299999 16.389999 22.15 16.219999 C 22 16.049999 21.92 15.86 21.92 15.62 Z"/>
</svg>
